<?xml version="1.0" encoding="utf-8"?>
<!-- Generator: Adobe Illustrator 16.0.0, SVG Export Plug-In . SVG Version: 6.00 Build 0)  -->
<!DOCTYPE svg PUBLIC "-//W3C//DTD SVG 1.1//EN" "http://www.w3.org/Graphics/SVG/1.1/DTD/svg11.dtd">
<svg version="1.1" id="Layer" xmlns="http://www.w3.org/2000/svg" xmlns:xlink="http://www.w3.org/1999/xlink" x="0px" y="0px"
	 width="512px" height="512px" viewBox="0 0 512 512" enable-background="new 0 0 512 512" xml:space="preserve">
<path fill="#800080" d="M369.968,80c-36.784,0-68.696,24.92-77.608,60.6c-0.104,0.416-0.184,0.832-0.256,1.256L256,359.048
	l-36.097-217.2c-0.071-0.424-0.159-0.84-0.264-1.256C210.72,104.92,178.808,80,142,80c-43.008,0-78,34.992-78,78.008
	c0,15.872,6.184,30.8,17.407,42.024l35.28,35.28c6.24,6.248,16.384,6.248,22.624,0c6.248-6.248,6.248-16.376,0-22.624l-35.28-35.28
	C98.856,172.224,96,165.336,96,158c0-25.36,20.64-46,46.031-46c21.864,0,40.864,14.68,46.416,35.784l44,264.784
	c0.072,0.424,0.16,0.84,0.265,1.256C235.432,424.696,244.792,432,256,432s20.56-7.304,23.279-18.176
	c0.112-0.416,0.192-0.832,0.265-1.256l44.008-264.792C329.104,126.68,348.104,112,369.999,112c25.368,0,46,20.64,46,46.008
	c0,7.328-2.848,14.216-8.04,19.4l-35.271,35.28c-6.248,6.248-6.248,16.376,0,22.624s16.376,6.248,22.624,0l35.271-35.272
	c11.232-11.224,17.416-26.16,17.416-42.04C447.999,114.992,413.008,80,369.968,80L369.968,80z"/>
</svg>
