<?xml version="1.0" encoding="utf-8"?>
<!-- Generator: Adobe Illustrator 16.0.0, SVG Export Plug-In . SVG Version: 6.00 Build 0)  -->
<!DOCTYPE svg PUBLIC "-//W3C//DTD SVG 1.1//EN" "http://www.w3.org/Graphics/SVG/1.1/DTD/svg11.dtd">
<svg version="1.1" id="Layer" xmlns="http://www.w3.org/2000/svg" xmlns:xlink="http://www.w3.org/1999/xlink" x="0px" y="0px"
	 width="512px" height="512px" viewBox="0 0 512 512" enable-background="new 0 0 512 512" xml:space="preserve">
<path fill="#800080" d="M432,368h-88c-3.04,0-5.849-0.896-8.272-2.376c28.904-33.088,51.28-70.952,65.136-110.8
	c4.864-14,7.137-23.8,7.137-30.824c0-30.88-25.12-56-56-56c-8.601,0-16.713,2-24,5.48V128c0-25.536-15.145-48.592-38.576-58.736
	c-16.16-6.992-34.688-6.992-50.84,0c-8.832,3.824-16.48,9.48-22.584,16.408c-6.104-6.928-13.752-12.584-22.576-16.408
	c-16.16-6.992-34.688-6.992-50.84,0c-11.889,5.144-21.608,13.632-28.336,24.056c-6.496-9.264-14.2-17.776-23.288-25.048
	l-0.968-0.776c-6.912-5.52-16.977-4.384-22.488,2.52c-5.512,6.904-4.384,16.976,2.52,22.488l0.96,0.76
	c20.992,16.8,33.024,41.84,33.024,68.72V240v96c0,8.832,7.168,16,16,16s16-7.168,16-16v-96v-78.016V128
	c0-12.768,7.568-24.296,19.288-29.368c8.08-3.504,17.344-3.504,25.424,0C192.432,103.704,200,115.232,200,128v112v96
	c0,8.832,7.168,16,16,16s16-7.168,16-16v-96V128c0-12.768,7.567-24.296,19.288-29.368c8.08-3.504,17.344-3.504,25.424,0
	C288.432,103.704,296,115.232,296,128v224c0,2.928,0.304,5.784,0.808,8.568l-60.12,60.119c-6.248,6.248-6.248,16.377,0,22.624
	c3.12,3.128,7.216,4.688,11.313,4.688c4.096,0,8.184-1.561,11.312-4.688l54.24-54.231C321.848,395.896,332.448,400,344,400h88
	c8.831,0,16-7.168,16-16S440.831,368,432,368L432,368z M352,200c13.231,0,24,10.768,24,24c0,0.816-0.257,5.64-5.36,20.32
	c-9.769,28.088-24.296,55.104-42.64,79.905V224C328,210.768,338.768,200,352,200z"/>
</svg>
