<?xml version="1.0" encoding="utf-8"?>
<!-- Generator: Adobe Illustrator 16.0.0, SVG Export Plug-In . SVG Version: 6.00 Build 0)  -->
<!DOCTYPE svg PUBLIC "-//W3C//DTD SVG 1.1//EN" "http://www.w3.org/Graphics/SVG/1.1/DTD/svg11.dtd">
<svg version="1.1" id="Layer" xmlns="http://www.w3.org/2000/svg" xmlns:xlink="http://www.w3.org/1999/xlink" x="0px" y="0px"
	 width="512px" height="512px" viewBox="0 0 512 512" enable-background="new 0 0 512 512" xml:space="preserve">
<path fill="#800080" d="M423.76,101.216c-1.168-6.624-6.353-11.808-12.977-12.976l-135.999-24c-8.696-1.528-17,4.272-18.536,12.976
	c-1.536,8.704,4.271,17,12.976,18.536l105.744,18.656L196,293.376l-72.688-72.688c-6.24-6.248-16.384-6.248-22.624,0
	c-6.248,6.248-6.248,16.376,0,22.624L173.376,316L68.688,420.688c-6.248,6.248-6.248,16.377,0,22.624
	C71.808,446.44,75.904,448,80,448c4.096,0,8.191-1.56,11.312-4.688L196,338.624l64.688,64.688c3.12,3.128,7.216,4.688,11.313,4.688
	c4.096,0,8.191-1.561,11.312-4.688c6.248-6.247,6.248-16.376,0-22.624L218.624,316l178.96-178.96l18.655,105.744
	c1.376,7.76,8.12,13.216,15.744,13.216c0.92,0,1.856-0.08,2.8-0.248c8.704-1.536,14.513-9.832,12.977-18.536L423.76,101.216z"/>
</svg>
