<?xml version="1.0" encoding="utf-8"?>
<!-- Generator: Adobe Illustrator 16.0.0, SVG Export Plug-In . SVG Version: 6.00 Build 0)  -->
<!DOCTYPE svg PUBLIC "-//W3C//DTD SVG 1.1//EN" "http://www.w3.org/Graphics/SVG/1.1/DTD/svg11.dtd">
<svg version="1.1" id="Layer" xmlns="http://www.w3.org/2000/svg" xmlns:xlink="http://www.w3.org/1999/xlink" x="0px" y="0px"
	 width="512px" height="512px" viewBox="0 0 512 512" enable-background="new 0 0 512 512" xml:space="preserve">
<path fill="#800080" d="M414.615,137.504c-2.144-4.816-6.512-8.272-11.695-9.232c-5.217-0.968-10.513,0.688-14.232,4.416
	l-62.84,62.84l-22.984-57.472c-2-5-6.376-8.656-11.64-9.728c-5.256-1.088-10.728,0.56-14.528,4.36l-62.84,62.84l-22.983-57.472
	c-1.904-4.76-5.969-8.312-10.937-9.568c-4.952-1.248-10.224-0.064-14.168,3.216l-96,80c-6.792,5.664-7.704,15.744-2.048,22.536
	c3.152,3.8,7.704,5.76,12.288,5.76c3.608,0,7.24-1.216,10.232-3.704l79.079-65.904l23.824,59.552c2,5,6.376,8.656,11.641,9.728
	c5.287,1.096,10.735-0.56,14.527-4.36l62.84-62.84l22.984,57.472c2,5,6.376,8.656,11.64,9.728c5.28,1.096,10.736-0.56,14.528-4.36
	l63.528-63.528l22.535,50.712c3.584,8.072,13.017,11.696,21.12,8.12c8.072-3.592,11.712-13.04,8.12-21.12L414.615,137.504z"/>
<path fill="#800080" d="M414.615,281.504c-2.144-4.816-6.512-8.271-11.695-9.232c-5.217-0.967-10.513,0.688-14.232,4.416
	l-62.84,62.84l-22.984-57.471c-2-5-6.376-8.656-11.64-9.729c-5.256-1.088-10.728,0.56-14.528,4.359l-62.84,62.84l-22.983-57.471
	c-1.904-4.761-5.969-8.313-10.937-9.568c-4.952-1.256-10.224-0.064-14.168,3.216l-96,80c-6.792,5.664-7.704,15.743-2.048,22.536
	c3.152,3.8,7.704,5.76,12.288,5.76c3.608,0,7.24-1.216,10.232-3.704l79.079-65.903l23.824,59.551c2,5,6.376,8.656,11.641,9.729
	c5.287,1.096,10.735-0.552,14.527-4.359l62.84-62.84l22.984,57.471c2,5,6.376,8.656,11.64,9.729
	c5.28,1.096,10.736-0.552,14.528-4.359l63.528-63.528l22.535,50.712c3.584,8.072,13.017,11.695,21.12,8.12
	c8.072-3.593,11.712-13.04,8.12-21.12L414.615,281.504z"/>
</svg>
