<?xml version="1.0" encoding="utf-8"?>
<!-- Generator: Adobe Illustrator 16.0.0, SVG Export Plug-In . SVG Version: 6.00 Build 0)  -->
<!DOCTYPE svg PUBLIC "-//W3C//DTD SVG 1.1//EN" "http://www.w3.org/Graphics/SVG/1.1/DTD/svg11.dtd">
<svg version="1.1" id="Layer" xmlns="http://www.w3.org/2000/svg" xmlns:xlink="http://www.w3.org/1999/xlink" x="0px" y="0px"
	 width="512px" height="512px" viewBox="0 0 512 512" enable-background="new 0 0 512 512" xml:space="preserve">
<path fill="#800080" d="M112,272h72.512c-1.6,34.464-8.344,68.729-20.28,101.561l-19.264,52.976
	c-3.016,8.304,1.264,17.488,9.568,20.504c1.8,0.648,3.647,0.96,5.464,0.96c6.536,0,12.672-4.032,15.031-10.536l19.265-52.976
	c13.224-36.353,20.632-74.328,22.256-112.496h78.896c1.616,38.168,9.032,76.144,22.248,112.496l19.265,52.976
	C339.327,443.968,345.464,448,352,448c1.823,0,3.663-0.313,5.472-0.968c8.304-3.017,12.584-12.2,9.567-20.504l-19.264-52.977
	c-11.936-32.823-18.688-67.096-20.288-101.56h72.512c8.832,0,16-7.168,16-16s-7.168-16-16-16h-72.512
	c1.601-34.464,8.344-68.728,20.288-101.56l19.264-52.976c3.017-8.304-1.264-17.488-9.567-20.504
	c-8.288-3.008-17.48,1.256-20.504,9.568l-19.265,52.976c-13.224,36.36-20.64,74.336-22.256,112.504h-78.896
	c-1.624-38.168-9.032-76.144-22.256-112.496l-19.265-52.976c-3.016-8.304-12.199-12.584-20.504-9.568
	c-8.304,3.016-12.584,12.2-9.567,20.504l19.264,52.976c11.937,32.824,18.68,67.096,20.28,101.56H112c-8.832,0-16,7.168-16,16
	S103.168,272,112,272z"/>
</svg>
