<?xml version="1.0" encoding="utf-8"?>
<!-- Generator: Adobe Illustrator 16.0.0, SVG Export Plug-In . SVG Version: 6.00 Build 0)  -->
<!DOCTYPE svg PUBLIC "-//W3C//DTD SVG 1.1//EN" "http://www.w3.org/Graphics/SVG/1.1/DTD/svg11.dtd">
<svg version="1.1" id="Layer" xmlns="http://www.w3.org/2000/svg" xmlns:xlink="http://www.w3.org/1999/xlink" x="0px" y="0px"
	 width="512px" height="512px" viewBox="0 0 512 512" enable-background="new 0 0 512 512" xml:space="preserve">
<path fill="#800080" d="M303.888,311.84c10.023,21.456,29.888,35.664,53.128,38c2.528,0.256,5.096,0.385,7.688,0.385
	c41.513,0,75.296-33.496,75.296-74.664c0-8.832-7.168-16-16-16c-8.831,0-16,7.168-16,16c0,23.527-19.424,42.664-43.296,42.664
	c-1.504,0-2.983-0.072-4.464-0.225c-12.111-1.216-22.08-8.393-27.359-19.695c-5.761-12.313-4.656-26.337,2.928-37.513
	c23.552-34.68,35.008-61.832,35.008-83C370.823,115.04,319.312,64,256,64c-63.313,0-114.824,51.04-114.824,113.776
	c0,24.64,15.208,55.104,32.76,82.121c-2.28-0.16-4.56-0.345-6.88-0.345c-52.408,0-95.056,42.272-95.056,94.224
	C72,405.729,114.648,448,167.064,448s95.057-42.271,95.057-94.225c0-26.647-11.265-50.695-29.265-67.848
	c-36.808-44.76-59.672-86.192-59.672-108.152C173.176,132.68,210.336,96,256,96s82.823,36.68,82.823,81.776
	c0,9.864-5.12,29.16-29.479,65.024C295.56,263.096,293.472,289.552,303.888,311.84L303.888,311.84z M167.064,416
	C132.288,416,104,388.088,104,353.775c0-34.312,28.288-62.224,63.063-62.224c34.769,0,63.057,27.912,63.057,62.224
	C230.12,388.088,201.832,416,167.064,416z"/>
</svg>
