<?xml version="1.0" encoding="utf-8"?>
<!-- Generator: Adobe Illustrator 16.0.0, SVG Export Plug-In . SVG Version: 6.00 Build 0)  -->
<!DOCTYPE svg PUBLIC "-//W3C//DTD SVG 1.1//EN" "http://www.w3.org/Graphics/SVG/1.1/DTD/svg11.dtd">
<svg version="1.1" id="Layer" xmlns="http://www.w3.org/2000/svg" xmlns:xlink="http://www.w3.org/1999/xlink" x="0px" y="0px"
	 width="512px" height="512px" viewBox="0 0 512 512" enable-background="new 0 0 512 512" xml:space="preserve">
<path fill="#800080" d="M71.408,418.504c-7.456,4.744-9.648,14.64-4.904,22.088c4.752,7.456,14.632,9.648,22.096,4.912
	c101.688-64.72,233.128-64.72,334.816,0c2.655,1.688,5.632,2.496,8.567,2.496c5.288,0,10.464-2.624,13.512-7.416
	c4.744-7.456,2.544-17.344-4.903-22.088c-27.84-17.72-57.712-31.016-88.592-39.936V133.432c30.88-8.92,60.752-22.216,88.592-39.936
	c7.456-4.744,9.647-14.64,4.903-22.088c-4.752-7.456-14.624-9.648-22.096-4.912c-101.688,64.72-233.128,64.72-334.815,0
	c-7.448-4.736-17.336-2.544-22.088,4.912c-4.744,7.456-2.544,17.344,4.903,22.088c27.84,17.72,57.712,31.016,88.593,39.936v245.136
	C129.12,387.488,99.248,400.784,71.408,418.504z M192,140.872c21.144,3.976,42.56,6.144,64,6.144c21.439,0,42.855-2.168,64-6.144
	V371.12c-42.28-7.944-85.721-7.944-128,0V140.872z"/>
</svg>
