<?xml version="1.0" encoding="utf-8"?>
<!-- Generator: Adobe Illustrator 16.0.0, SVG Export Plug-In . SVG Version: 6.00 Build 0)  -->
<!DOCTYPE svg PUBLIC "-//W3C//DTD SVG 1.1//EN" "http://www.w3.org/Graphics/SVG/1.1/DTD/svg11.dtd">
<svg version="1.1" id="Layer" xmlns="http://www.w3.org/2000/svg" xmlns:xlink="http://www.w3.org/1999/xlink" x="0px" y="0px"
	 width="512px" height="512px" viewBox="0 0 512 512" enable-background="new 0 0 512 512" xml:space="preserve">
<path fill="#800080" d="M432,280h-88.408C354.159,263.488,360,244.096,360,224c0-57.344-46.656-104-104-104
	c-57.345,0-104,46.656-104,104c0,20.096,5.84,39.488,16.408,56H80c-8.832,0-16,7.168-16,16s7.168,16,16,16H205.44
	c6.977,0,13.152-4.52,15.256-11.168c2.104-6.648-0.344-13.904-6.048-17.912C195.456,269.416,184,247.392,184,224
	c0-39.696,32.304-72,72-72c39.695,0,72,32.304,72,72c0,23.392-11.456,45.416-30.648,58.912c-5.704,4.008-8.16,11.264-6.048,17.912
	S299.584,312,306.56,312H432c8.831,0,16-7.168,16-16S440.831,280,432,280z"/>
<path fill="#800080" d="M432,360H80c-8.832,0-16,7.168-16,16s7.168,16,16,16h352c8.831,0,16-7.168,16-16S440.831,360,432,360z"/>
</svg>
