<?xml version="1.0" encoding="utf-8"?>
<!-- Generator: Adobe Illustrator 16.0.0, SVG Export Plug-In . SVG Version: 6.00 Build 0)  -->
<!DOCTYPE svg PUBLIC "-//W3C//DTD SVG 1.1//EN" "http://www.w3.org/Graphics/SVG/1.1/DTD/svg11.dtd">
<svg version="1.1" id="Layer" xmlns="http://www.w3.org/2000/svg" xmlns:xlink="http://www.w3.org/1999/xlink" x="0px" y="0px"
	 width="512px" height="512px" viewBox="0 0 512 512" enable-background="new 0 0 512 512" xml:space="preserve">
<path fill-rule="evenodd" clip-rule="evenodd" fill="#800080" d="M476.801,132.597c-4.27,5.459-8.064,11.381-12.907,16.272
	c-9.188,9.292-18.917,18.066-28.569,26.89c-2.023,1.843-3.07,3.632-2.982,6.385c0.562,18.295-0.431,36.525-4.368,54.417
	c-2.786,12.651-6.059,25.253-10.039,37.583c-7.482,23.17-18.563,44.699-32.19,64.838c-11.021,16.283-23.857,31.066-38.281,44.465
	c-15.454,14.354-32.484,26.563-51.085,36.4c-25.128,13.295-51.821,22.167-80.058,26.088c-8.518,1.184-17.003,2.824-25.559,3.343
	c-9.57,0.572-19.239,0.627-28.809,0.021c-39.743-2.503-77.489-12.308-112.46-31.803c-4.777-2.661-9.554-5.333-14.293-8.594
	c48.86,3.964,92.895-8.153,132.414-37.851c-41.067-4.058-69.239-24.321-84.29-63.808c13.633,2.11,26.099,2.028,38.723-1.336
	c-44.138-13.949-67.952-43.489-70.449-89.982c12.438,5.715,25.095,9.75,39.028,9.892c-18.393-14.254-31.165-32.168-36.067-54.984
	c-4.902-22.8-2.225-44.596,9.979-65.514c49.368,57.71,111.31,89.563,187.327,94.868c-0.6-5-1.309-9.379-1.625-13.791
	c-1.56-21.562,3.577-41.291,16.212-59.003c8.327-11.675,18.497-21.196,31.115-28.095c9.091-4.968,18.813-8.114,28.968-9.745
	c29.703-4.76,55.42,3.79,77.363,24.005c2.825,2.607,5.229,3.354,8.977,2.427c17.068-4.226,33.362-10.35,48.74-18.895
	c0.861-0.475,1.777-0.845,3.583-1.69c-7.024,21.147-19.965,36.683-37.219,49.051c16.834-1.75,32.73-6.446,48.206-12.788
	C476.393,131.975,476.6,132.286,476.801,132.597z"/>
</svg>
