<?xml version="1.0" encoding="utf-8"?>
<!-- Generator: Adobe Illustrator 16.0.0, SVG Export Plug-In . SVG Version: 6.00 Build 0)  -->
<!DOCTYPE svg PUBLIC "-//W3C//DTD SVG 1.1//EN" "http://www.w3.org/Graphics/SVG/1.1/DTD/svg11.dtd">
<svg version="1.1" id="Layer" xmlns="http://www.w3.org/2000/svg" xmlns:xlink="http://www.w3.org/1999/xlink" x="0px" y="0px"
	 width="512px" height="512px" viewBox="0 0 512 512" enable-background="new 0 0 512 512" xml:space="preserve">
<path fill="#800080" d="M432,88h-32.345c-25.64,0-48.728,15.224-58.832,38.792L317.76,180.6c-5.048,11.784-16.592,19.4-29.416,19.4
	h-64.696c-12.815,0-24.359-7.616-29.416-19.392l-23.063-53.816C161.072,103.224,137.984,88,112.344,88H80c-8.832,0-16,7.168-16,16
	s7.168,16,16,16h32.344c12.816,0,24.36,7.616,29.416,19.392l23.064,53.816c5.224,12.192,13.968,22.08,24.703,28.856
	C161.976,242.488,144,275.145,144,312c0,61.76,50.239,112,112,112c61.76,0,112-50.24,112-112c0-36.855-17.977-69.512-45.528-89.936
	c10.735-6.776,19.479-16.664,24.704-28.856L370.24,139.4c5.048-11.784,16.592-19.4,29.416-19.4H432c8.831,0,16-7.168,16-16
	S440.831,88,432,88z M336,312c0,44.111-35.889,80-80,80c-44.112,0-80-35.889-80-80s35.888-80,80-80C300.112,232,336,267.889,336,312
	z"/>
</svg>
