<?xml version="1.0" encoding="utf-8"?>
<!-- Generator: Adobe Illustrator 16.0.0, SVG Export Plug-In . SVG Version: 6.00 Build 0)  -->
<!DOCTYPE svg PUBLIC "-//W3C//DTD SVG 1.1//EN" "http://www.w3.org/Graphics/SVG/1.1/DTD/svg11.dtd">
<svg version="1.1" id="Layer" xmlns="http://www.w3.org/2000/svg" xmlns:xlink="http://www.w3.org/1999/xlink" x="0px" y="0px"
	 width="512px" height="512px" viewBox="0 0 512 512" enable-background="new 0 0 512 512" xml:space="preserve">
<path fill="#800080" d="M360,320c-16.368,0-33.793,11.328-48,23.768V216c0-29.496-14.648-56.864-39.185-73.216
	c-29.655-19.776-67.976-19.776-97.624,0c-4.56,3.04-8.647,6.568-12.496,10.312c-7.703-31.664-23.743-60.776-47.376-84.408
	c-6.239-6.248-16.384-6.248-22.624,0c-6.247,6.248-6.247,16.376,0,22.624C120.616,119.248,136,156.384,136,195.88V216v24v144
	c0,8.832,7.168,16,16,16s16-7.168,16-16V240v-24c0-18.768,9.319-36.184,24.936-46.592c18.872-12.584,43.256-12.576,62.128,0
	C270.68,179.816,280,197.232,280,216v161.376l-20.681,20.688C247.744,409.624,232.36,416,216,416c-8.832,0-16,7.168-16,16
	s7.168,16,16,16c24.903,0,48.328-9.696,65.943-27.313l13.128-13.128C310.184,424.056,336.184,448,360,448c35.287,0,64-28.712,64-64
	S395.287,320,360,320L360,320z M360,416c-9.328,0-27.984-15.184-43.104-32c15.12-16.816,33.776-32,43.104-32
	c17.647,0,32,14.352,32,32S377.648,416,360,416z"/>
</svg>
