<?xml version="1.0" encoding="utf-8"?>
<!-- Generator: Adobe Illustrator 16.0.0, SVG Export Plug-In . SVG Version: 6.00 Build 0)  -->
<!DOCTYPE svg PUBLIC "-//W3C//DTD SVG 1.1//EN" "http://www.w3.org/Graphics/SVG/1.1/DTD/svg11.dtd">
<svg version="1.1" id="Layer" xmlns="http://www.w3.org/2000/svg" xmlns:xlink="http://www.w3.org/1999/xlink" x="0px" y="0px"
	 width="512px" height="512px" viewBox="0 0 512 512" enable-background="new 0 0 512 512" xml:space="preserve">
<path fill="#800080" d="M411.312,356.688c-6.24-6.248-16.384-6.248-22.624,0c-6.248,6.248-6.248,16.377,0,22.625l4.688,4.688H344
	c-8.824,0-16-7.176-16-16V128c0-25.536-15.146-48.592-38.576-58.736c-16.16-6.992-34.688-6.992-50.84,0
	c-8.832,3.824-16.48,9.48-22.584,16.408c-6.104-6.928-13.752-12.584-22.576-16.408c-16.16-6.992-34.688-6.992-50.84,0
	c-11.89,5.144-21.608,13.632-28.336,24.056c-6.496-9.264-14.2-17.776-23.288-25.048l-0.968-0.776
	c-6.912-5.512-16.978-4.384-22.488,2.52c-5.512,6.904-4.384,16.976,2.52,22.488l0.96,0.76c20.992,16.8,33.024,41.84,33.024,68.72
	V192v144c0,8.832,7.168,16,16,16s16-7.168,16-16V192v-30.016V128c0-12.768,7.568-24.296,19.288-29.368
	c8.08-3.504,17.344-3.504,25.424,0C192.432,103.704,200,115.232,200,128v64v144c0,8.832,7.168,16,16,16s16-7.168,16-16V192v-64
	c0-12.768,7.566-24.296,19.288-29.368c8.08-3.504,17.344-3.504,25.424,0C288.432,103.704,296,115.232,296,128v240
	c0,26.473,21.526,48,48,48h49.376l-4.688,4.688c-6.248,6.248-6.248,16.377,0,22.624c3.12,3.129,7.216,4.688,11.313,4.688
	c4.096,0,8.19-1.561,11.312-4.688l32-32c6.248-6.247,6.248-16.376,0-22.624L411.312,356.688z"/>
</svg>
