<?xml version="1.0" encoding="utf-8"?>
<!-- Generator: Adobe Illustrator 16.0.0, SVG Export Plug-In . SVG Version: 6.00 Build 0)  -->
<!DOCTYPE svg PUBLIC "-//W3C//DTD SVG 1.1//EN" "http://www.w3.org/Graphics/SVG/1.1/DTD/svg11.dtd">
<svg version="1.1" id="Layer" xmlns="http://www.w3.org/2000/svg" xmlns:xlink="http://www.w3.org/1999/xlink" x="0px" y="0px"
	 width="512px" height="512px" viewBox="0 0 512 512" enable-background="new 0 0 512 512" xml:space="preserve">
<path fill="#800080" d="M136,275.72c39.704,0,72-32.304,72-72c0-19.184-7.584-36.592-19.864-49.512
	c59.2-6.672,119.655,2.632,174.296,27.472l62.936,28.608c2.152,0.976,4.4,1.44,6.616,1.44c6.08,0,11.888-3.488,14.568-9.384
	c3.655-8.04,0.104-17.528-7.937-21.184l-62.943-28.608c-75.744-34.432-161.648-41.728-242.096-20.704
	C95.008,133.128,64,164.832,64,203.72C64,243.416,96.296,275.72,136,275.72z M136,163.72c22.056,0,40,17.944,40,40
	c0,22.056-17.944,40-40,40c-22.057,0-40-17.944-40-40C96,181.664,113.944,163.72,136,163.72z"/>
<path fill="#800080" d="M448,308.279c0-39.695-32.297-71.999-72-71.999c-39.704,0-72,32.304-72,71.999
	c0,19.185,7.592,36.601,19.863,49.521c-59.208,6.681-119.663-2.632-174.312-27.479l-62.936-28.608
	c-8-3.647-17.513-0.112-21.177,7.944c-3.655,8.048-0.104,17.527,7.944,21.184l62.936,28.607
	c47.433,21.561,98.832,32.496,150.416,32.496c30.736,0,61.528-3.943,91.568-11.783C416.936,378.936,448,347.2,448,308.279
	L448,308.279z M376,348.279c-22.057,0-40-17.943-40-40c0-22.055,17.943-39.999,40-39.999c22.056,0,40,17.944,40,39.999
	C416,330.336,398.056,348.279,376,348.279z"/>
</svg>
